<?xml version="1.0" standalone="no"?>
<!DOCTYPE svg PUBLIC "-//W3C//DTD SVG 20010904//EN"
 "http://www.w3.org/TR/2001/REC-SVG-20010904/DTD/svg10.dtd">
<svg version="1.0" xmlns="http://www.w3.org/2000/svg"
 width="700.000000pt" height="700.000000pt" viewBox="0 0 700.000000 700.000000"
 preserveAspectRatio="xMidYMid meet">
<metadata>
Created by potrace 1.11, written by Peter Selinger 2001-2013
</metadata>
<g transform="translate(0.000000,700.000000) scale(0.100000,-0.100000)"
fill="#000000" stroke="none">
<path d="M708 6763 c-50 -31 -53 -54 -53 -412 0 -290 -1 -331 -15 -332 -172
-8 -204 -15 -271 -57 -212 -135 -190 -457 39 -569 43 -21 73 -27 151 -31 l98
-5 -1 -216 -1 -216 -60 -2 c-176 -5 -276 -60 -343 -188 -23 -43 -26 -62 -26
-140 0 -74 4 -99 24 -139 63 -129 198 -201 356 -189 24 1 45 0 45 -5 1 -4 2
-103 3 -219 l2 -213 -66 -1 c-132 -1 -198 -25 -270 -98 -75 -75 -105 -152 -98
-250 14 -187 161 -313 363 -310 28 1 55 0 60 0 7 -1 11 -77 11 -218 l0 -218
-87 -2 c-113 -3 -183 -29 -247 -91 -74 -73 -97 -128 -96 -237 0 -77 4 -97 26
-140 57 -109 153 -173 271 -181 40 -3 86 -7 102 -8 l30 -2 1 -217 1 -217 -76
-1 c-100 -1 -121 -5 -181 -35 -62 -31 -114 -83 -148 -149 -22 -43 -26 -63 -26
-140 -1 -108 21 -163 94 -236 62 -62 138 -90 247 -92 46 -1 84 -4 84 -7 1 -3
2 -154 3 -335 2 -358 4 -378 55 -408 27 -16 192 -17 2406 -17 2630 0 2421 -5
2450 64 12 27 14 554 14 3218 0 2975 -1 3187 -17 3219 -9 18 -28 39 -42 46
-20 10 -522 13 -2405 13 -2219 -1 -2382 -2 -2407 -17z m-51 -1074 l0 -109 -69
0 c-77 0 -119 17 -137 57 -25 55 -4 120 46 147 13 7 55 13 92 13 l67 1 1 -109z
m-10 -992 c5 -3 9 -52 9 -109 l-1 -103 -72 1 c-80 1 -117 18 -133 60 -35 91
24 161 133 158 30 -1 59 -4 64 -7z m10 -1197 l0 -110 -64 0 c-102 0 -153 38
-153 113 0 31 7 46 34 73 33 33 37 34 109 34 l74 0 0 -110z m-6 -989 c1 -3 3
-52 4 -108 2 -115 8 -106 -80 -104 -78 2 -99 12 -123 58 -27 50 -6 120 44 146
23 12 153 19 155 8z m5 -1203 l-1 -103 -60 -1 c-101 -1 -141 23 -152 90 -7 43
9 86 40 106 26 17 134 29 158 18 14 -6 17 -24 15 -110z"/>
<path d="M6236 6769 c-143 -34 -274 -167 -317 -323 -9 -30 -12 -774 -13 -2906
-1 -1576 1 -2880 3 -2899 3 -29 30 -62 176 -209 95 -96 186 -183 201 -193 35
-23 82 -24 112 -4 30 22 350 343 368 370 12 19 14 403 14 2906 0 2576 -1 2890
-15 2943 -51 194 -226 328 -424 325 -36 -1 -83 -5 -105 -10z"/>
</g>
</svg>
